<?xml version="1.0" encoding="UTF-8"?>
<svg width="222px" height="17px" viewBox="0 0 222 17" version="1.1" xmlns="http://www.w3.org/2000/svg" xmlns:xlink="http://www.w3.org/1999/xlink">
    <title>KNOCK Web Editor</title>
    <g id="A-업로드" stroke="none" stroke-width="1" fill="none" fill-rule="evenodd">
        <g id="A-0로그인" transform="translate(-609.000000, -404.000000)" fill="#D86CFF" fill-rule="nonzero">
            <g id="Group" transform="translate(608.000000, 399.000000)">
                <path d="M8.50048828,21 L8.50048828,15.2885742 C10.7563477,15.3706055 11.9697266,17.2744141 12.140625,21 L12.140625,21 L19.6157227,21 C19.4995117,19.1269531 19.142334,17.5495605 18.5441895,16.2678223 C17.9460449,14.986084 17.1274414,13.9453125 16.0883789,13.1455078 C17.1547852,12.3251953 17.934082,11.2963867 18.4262695,10.059082 C18.925293,8.82861328 19.1748047,7.25976562 19.1748047,5.35253906 L19.1748047,5.35253906 L12.1201172,5.35253906 C12.1201172,6.17285156 12.036377,6.89916992 11.8688965,7.53149414 C11.701416,8.16381836 11.4621582,8.70043945 11.151123,9.14135742 C10.8400879,9.58227539 10.4606934,9.92236328 10.0129395,10.1616211 C9.56518555,10.4008789 9.06103516,10.5410156 8.50048828,10.5820312 L8.50048828,10.5820312 L8.50048828,5.35253906 L1.57910156,5.35253906 L1.57910156,21 L8.50048828,21 Z M36.9858398,21.1230469 L36.9858398,5.35253906 L30.0541992,5.35253906 L30.0541992,10.5820312 L30.0131836,10.5820312 L26.4038086,5.35253906 L21.4511719,5.35253906 L21.4511719,21 L28.3725586,21 L28.3725586,16.2524414 L28.4135742,16.2524414 L31.7358398,21.1230469 L36.9858398,21.1230469 Z M47.4550781,21.2563477 C48.9248047,21.2563477 50.2817383,20.8974609 51.5258789,20.1796875 C52.7631836,19.4550781 53.7304688,18.4707031 54.4277344,17.2265625 C55.1318359,15.9824219 55.4838867,14.6289062 55.4838867,13.1660156 C55.4838867,11.6962891 55.1318359,10.3496094 54.4277344,9.12597656 C53.7304688,7.89550781 52.7631836,6.91796875 51.5258789,6.19335938 C50.2885742,5.46875 48.9316406,5.10644531 47.4550781,5.10644531 C45.9785156,5.10644531 44.6181641,5.47216797 43.3740234,6.20361328 C42.1298828,6.93505859 41.1625977,7.91601562 40.472168,9.14648438 C39.7817383,10.390625 39.4365234,11.7304688 39.4365234,13.1660156 C39.4365234,14.6357422 39.7885742,15.9926758 40.4926758,17.2368164 C41.2036133,18.487793 42.1708984,19.46875 43.3945312,20.1796875 C44.6318359,20.8974609 45.9853516,21.2563477 47.4550781,21.2563477 Z M47.4550781,14.3862305 C47.0175781,14.3862305 46.6484375,14.2358398 46.3476562,13.9350586 C46.0537109,13.6342773 45.9067383,13.237793 45.9067383,12.7456055 C45.9067383,12.2602539 46.0537109,11.8671875 46.3476562,11.5664062 C46.6416016,11.2587891 47.0073242,11.1049805 47.4448242,11.1049805 C47.6704102,11.1049805 47.8806152,11.1459961 48.0754395,11.2280273 C48.2702637,11.3100586 48.4360352,11.4228516 48.5727539,11.5664062 C48.7094727,11.7099609 48.8171387,11.8825684 48.895752,12.0842285 C48.9743652,12.2858887 49.0136719,12.5063477 49.0136719,12.7456055 C49.0136719,13.2241211 48.8632812,13.6206055 48.5625,13.9350586 C48.2617188,14.2358398 47.8925781,14.3862305 47.4550781,14.3862305 Z M66.2197266,21.2563477 C67.2998047,21.2563477 68.4140625,21.109375 69.5625,20.8154297 C70.7382812,20.5146484 71.7294922,20.121582 72.5361328,19.6362305 L72.5361328,19.6362305 L69.6342773,13.7094727 C69.2651367,13.887207 68.8549805,14.0239258 68.4038086,14.1196289 C67.9526367,14.215332 67.480957,14.2631836 66.9887695,14.2631836 C66.2231445,14.2631836 65.6369629,14.1572266 65.2302246,13.9453125 C64.8234863,13.7333984 64.6201172,13.4326172 64.6201172,13.0429688 C64.6201172,12.6533203 64.8029785,12.355957 65.1687012,12.1508789 C65.5344238,11.9458008 66.0898438,11.8432617 66.8349609,11.8432617 C67.3271484,11.8432617 67.814209,11.8808594 68.2961426,11.9560547 C68.7780762,12.03125 69.2241211,12.140625 69.6342773,12.2841797 L69.6342773,12.2841797 L72.5361328,6.75732422 C71.7568359,6.25830078 70.7929688,5.86181641 69.6445312,5.56787109 C68.4824219,5.26025391 67.3442383,5.10644531 66.2299805,5.10644531 C64.6303711,5.10644531 63.1606445,5.44140625 61.8208008,6.11132812 C60.4946289,6.78125 59.4453125,7.74853516 58.6728516,9.01318359 C57.9003906,10.277832 57.5141602,11.703125 57.5141602,13.2890625 C57.5141602,14.7519531 57.8730469,16.1020508 58.5908203,17.3393555 C59.3085938,18.5834961 60.3271484,19.5473633 61.6464844,20.230957 C62.9658203,20.9145508 64.4902344,21.2563477 66.2197266,21.2563477 Z M81.3237305,21 L81.3237305,15.2885742 C83.5795898,15.3706055 84.7929688,17.2744141 84.9638672,21 L84.9638672,21 L92.4389648,21 C92.3227539,19.1269531 91.9655762,17.5495605 91.3674316,16.2678223 C90.7692871,14.986084 89.9506836,13.9453125 88.9116211,13.1455078 C89.9780273,12.3251953 90.7573242,11.2963867 91.2495117,10.059082 C91.7485352,8.82861328 91.9980469,7.25976562 91.9980469,5.35253906 L91.9980469,5.35253906 L84.9433594,5.35253906 C84.9433594,6.17285156 84.8596191,6.89916992 84.6921387,7.53149414 C84.5246582,8.16381836 84.2854004,8.70043945 83.9743652,9.14135742 C83.6633301,9.58227539 83.2839355,9.92236328 82.8361816,10.1616211 C82.3884277,10.4008789 81.8842773,10.5410156 81.3237305,10.5820312 L81.3237305,10.5820312 L81.3237305,5.35253906 L74.4023438,5.35253906 L74.4023438,21 L81.3237305,21 Z M108.424805,21.1845703 L112.208496,12.8071289 L115.899902,21.1845703 L118.381348,21.1845703 L124.533691,6.78808594 L120.14502,6.78808594 L117.058594,14.6630859 L113.736328,6.78808594 L110.67041,6.78808594 L107.286621,14.6630859 L104.333496,6.78808594 L99.8935547,6.78808594 L105.922852,21.1845703 L108.424805,21.1845703 Z M130.532227,21.1845703 C131.72168,21.1845703 132.700928,21.0700684 133.469971,20.8410645 C134.239014,20.6120605 134.893555,20.3574219 135.433594,20.0771484 L135.433594,20.0771484 L135.433594,17.7905273 C133.929688,18.487793 132.555664,18.8364258 131.311523,18.8364258 C130.600586,18.8364258 129.964844,18.6347656 129.404297,18.2314453 C128.84375,17.828125 128.491699,17.3085938 128.348145,16.6728516 L128.348145,16.6728516 L135.700195,16.6728516 L135.700195,15.9345703 C135.700195,14.6220703 135.445557,13.5505371 134.936279,12.7199707 C134.427002,11.8894043 133.777588,11.2912598 132.988037,10.9255371 C132.198486,10.5598145 131.379883,10.3769531 130.532227,10.3769531 C129.24707,10.3769531 128.15332,10.607666 127.250977,11.0690918 C126.348633,11.5305176 125.673584,12.1662598 125.22583,12.9763184 C124.778076,13.786377 124.554199,14.7041016 124.554199,15.7294922 C124.554199,16.7685547 124.778076,17.6982422 125.22583,18.5185547 C125.673584,19.3388672 126.348633,19.9882812 127.250977,20.4667969 C128.15332,20.9453125 129.24707,21.1845703 130.532227,21.1845703 Z M132.234375,14.8476562 L128.245605,14.8476562 C128.245605,14.1914062 128.435303,13.6599121 128.814697,13.2531738 C129.194092,12.8464355 129.691406,12.6430664 130.306641,12.6430664 C130.928711,12.6430664 131.405518,12.8430176 131.737061,13.2429199 C132.068604,13.6428223 132.234375,14.1777344 132.234375,14.8476562 L132.234375,14.8476562 Z M144.528809,21.1845703 C145.287598,21.1845703 146.032715,20.996582 146.76416,20.6206055 C147.495605,20.2446289 148.097168,19.6584473 148.568848,18.8620605 C149.040527,18.0656738 149.276367,17.0625 149.276367,15.8525391 C149.276367,15.1416016 149.177246,14.4631348 148.979004,13.8171387 C148.780762,13.1711426 148.478271,12.5883789 148.071533,12.0688477 C147.664795,11.5493164 147.140137,11.1374512 146.497559,10.833252 C145.85498,10.5290527 145.113281,10.3769531 144.272461,10.3769531 C143.643555,10.3769531 143.089844,10.4572754 142.611328,10.6179199 C142.132812,10.7785645 141.756836,10.9648438 141.483398,11.1767578 L141.483398,11.1767578 L141.483398,6.78808594 L137.791992,6.78808594 L137.791992,21 L141.483398,21 L141.483398,20.0566406 C141.722656,20.2617188 141.953369,20.4377441 142.175537,20.5847168 C142.397705,20.7316895 142.70874,20.8684082 143.108643,20.994873 C143.508545,21.1213379 143.981934,21.1845703 144.528809,21.1845703 Z M143.349609,18.4160156 C142.625,18.4160156 142.00293,18.1699219 141.483398,17.6777344 L141.483398,17.6777344 L141.483398,13.6889648 C142.173828,13.2446289 142.795898,13.0224609 143.349609,13.0224609 C143.90332,13.0224609 144.381836,13.2565918 144.785156,13.7248535 C145.188477,14.1931152 145.390137,14.875 145.390137,15.7705078 C145.390137,16.7890625 145.164551,17.4846191 144.713379,17.8571777 C144.262207,18.2297363 143.807617,18.4160156 143.349609,18.4160156 Z M168.748535,21 L168.748535,18.1391602 L162.319336,18.1391602 L162.319336,15.1040039 L168.287109,15.1040039 L168.287109,12.2431641 L162.319336,12.2431641 L162.319336,9.63867188 L168.574219,9.63867188 L168.574219,6.78808594 L158.033203,6.78808594 L158.033203,21 L168.748535,21 Z M175.321289,21.1845703 C176.086914,21.1845703 176.686768,21.0786133 177.12085,20.8666992 C177.554932,20.6547852 177.966797,20.3847656 178.356445,20.0566406 L178.356445,20.0566406 L178.356445,21 L182.058105,21 L182.058105,6.78808594 L178.356445,6.78808594 L178.356445,11.1767578 C178.02832,10.9443359 177.652344,10.7529297 177.228516,10.6025391 C176.804688,10.4521484 176.250977,10.3769531 175.567383,10.3769531 C174.466797,10.3769531 173.537109,10.6367188 172.77832,11.15625 C172.019531,11.6757812 171.462402,12.3508301 171.106934,13.1813965 C170.751465,14.0119629 170.57373,14.9023438 170.57373,15.8525391 C170.57373,17.0625 170.80957,18.0656738 171.28125,18.8620605 C171.75293,19.6584473 172.354492,20.2446289 173.085938,20.6206055 C173.817383,20.996582 174.5625,21.1845703 175.321289,21.1845703 Z M176.490234,18.4160156 C175.950195,18.4160156 175.476807,18.2058105 175.070068,17.7854004 C174.66333,17.3649902 174.459961,16.6933594 174.459961,15.7705078 C174.459961,14.9228516 174.653076,14.2529297 175.039307,13.7607422 C175.425537,13.2685547 175.90918,13.0224609 176.490234,13.0224609 C176.818359,13.0224609 177.10376,13.0737305 177.346436,13.1762695 C177.589111,13.2788086 177.925781,13.449707 178.356445,13.6889648 L178.356445,13.6889648 L178.356445,17.6777344 C178.103516,17.8896484 177.840332,18.0656738 177.566895,18.2058105 C177.293457,18.3459473 176.93457,18.4160156 176.490234,18.4160156 Z M186.42627,9.70019531 C186.850098,9.70019531 187.21582,9.54980469 187.523438,9.24902344 C187.831055,8.94824219 187.984863,8.58251953 187.984863,8.15185547 C187.984863,7.72802734 187.831055,7.36230469 187.523438,7.0546875 C187.21582,6.74707031 186.850098,6.59326172 186.42627,6.59326172 C185.995605,6.59326172 185.629883,6.74707031 185.329102,7.0546875 C185.02832,7.36230469 184.87793,7.72802734 184.87793,8.15185547 C184.87793,8.43896484 184.946289,8.70043945 185.083008,8.9362793 C185.219727,9.17211914 185.406006,9.35839844 185.641846,9.49511719 C185.877686,9.63183594 186.13916,9.70019531 186.42627,9.70019531 Z M188.282227,21 L188.282227,10.5615234 L184.580566,10.5615234 L184.580566,21 L188.282227,21 Z M195.541992,21.1845703 C196.157227,21.1845703 196.801514,21.0991211 197.474854,20.9282227 C198.148193,20.7573242 198.67627,20.5795898 199.059082,20.3950195 L199.059082,20.3950195 L199.059082,17.5136719 C198.102051,18.0058594 197.32959,18.2519531 196.741699,18.2519531 C196.290527,18.2519531 195.953857,18.1716309 195.731689,18.0109863 C195.509521,17.8503418 195.374512,17.6503906 195.32666,17.4111328 C195.278809,17.171875 195.254883,16.8574219 195.254883,16.4677734 L195.254883,16.4677734 L195.254883,13.125 L198.782227,13.125 L198.782227,10.5615234 L195.254883,10.5615234 L195.254883,7.43408203 L194.834473,7.43408203 L189.881836,12.4790039 L189.881836,13.125 L191.553223,13.125 L191.553223,17.2880859 C191.553223,19.8857422 192.882812,21.1845703 195.541992,21.1845703 Z M206.216309,21.1845703 C207.508301,21.1845703 208.60376,20.9487305 209.502686,20.4770508 C210.401611,20.0053711 211.07666,19.362793 211.527832,18.5493164 C211.979004,17.7358398 212.20459,16.8095703 212.20459,15.7705078 C212.20459,14.984375 212.078125,14.2666016 211.825195,13.6171875 C211.572266,12.9677734 211.197998,12.4003906 210.702393,11.9150391 C210.206787,11.4296875 209.581299,11.052002 208.825928,10.7819824 C208.070557,10.5119629 207.200684,10.3769531 206.216309,10.3769531 C205.23877,10.3769531 204.377441,10.5102539 203.632324,10.7768555 C202.887207,11.043457 202.26001,11.4245605 201.750732,11.920166 C201.241455,12.4157715 200.862061,12.9848633 200.612549,13.6274414 C200.363037,14.2700195 200.238281,14.984375 200.238281,15.7705078 C200.238281,16.8095703 200.462158,17.7358398 200.909912,18.5493164 C201.357666,19.362793 202.031006,20.0053711 202.929932,20.4770508 C203.828857,20.9487305 204.924316,21.1845703 206.216309,21.1845703 Z M206.216309,18.4365234 C205.546387,18.4365234 205.030273,18.1972656 204.667969,17.71875 C204.305664,17.2402344 204.124512,16.5908203 204.124512,15.7705078 C204.124512,14.9433594 204.303955,14.2956543 204.662842,13.8273926 C205.021729,13.3591309 205.539551,13.125 206.216309,13.125 C206.899902,13.125 207.421143,13.3591309 207.780029,13.8273926 C208.138916,14.2956543 208.318359,14.9433594 208.318359,15.7705078 C208.318359,16.5976562 208.138916,17.2487793 207.780029,17.723877 C207.421143,18.1989746 206.899902,18.4365234 206.216309,18.4365234 Z M217.792969,21 L217.792969,16.5087891 C218.141602,15.5585938 218.505615,14.9074707 218.88501,14.5554199 C219.264404,14.2033691 219.713867,14.0273438 220.233398,14.0273438 C220.807617,14.0273438 221.375,14.2939453 221.935547,14.8271484 L221.935547,14.8271484 L223.299316,11.1254883 C222.868652,10.8725586 222.497803,10.6845703 222.186768,10.5615234 C221.875732,10.4384766 221.511719,10.3769531 221.094727,10.3769531 C220.301758,10.3769531 219.611328,10.6726074 219.023438,11.263916 C218.435547,11.8552246 218.025391,12.4619141 217.792969,13.0839844 L217.792969,13.0839844 L217.792969,10.5615234 L214.101562,10.5615234 L214.101562,21 L217.792969,21 Z" id="KNOCKWebEditor"></path>
            </g>
        </g>
    </g>
</svg>