<?xml version="1.0" encoding="UTF-8"?>
<svg width="24px" height="24px" viewBox="0 0 24 24" version="1.1" xmlns="http://www.w3.org/2000/svg" xmlns:xlink="http://www.w3.org/1999/xlink">
    <title>ic_add_circle</title>
    <g id="Symbol" stroke="none" stroke-width="1" fill="none" fill-rule="evenodd">
        <g id="ic_add_circle">
            <polygon id="Path" points="0 0 24 0 24 24 0 24"></polygon>
            <path d="M12,0 C5.376,0 0,5.376 0,12 C0,18.624 5.376,24 12,24 C18.624,24 24,18.624 24,12 C24,5.376 18.624,0 12,0 Z M18,13.2 L13.2,13.2 L13.2,18 L10.8,18 L10.8,13.2 L6,13.2 L6,10.8 L10.8,10.8 L10.8,6 L13.2,6 L13.2,10.8 L18,10.8 L18,13.2 Z" id="Shape" fill="#F8F8F8" fill-rule="nonzero"></path>
        </g>
    </g>
</svg>