<?xml version="1.0" encoding="UTF-8"?>
<svg width="24px" height="24px" viewBox="0 0 24 24" version="1.1" xmlns="http://www.w3.org/2000/svg" xmlns:xlink="http://www.w3.org/1999/xlink">
    <title>ic_account_add_white</title>
    <g id="Symbol" stroke="none" stroke-width="1" fill="none" fill-rule="evenodd">
        <g id="ic_account_add_white">
            <polygon id="Path" points="0 0 24 0 24 24 0 24"></polygon>
            <path d="M9,12 C11.21,12 13,10.21 13,8 C13,5.79 11.21,4 9,4 C6.79,4 5,5.79 5,8 C5,10.21 6.79,12 9,12 Z M9,14 C6.33,14 1,15.34 1,18 L1,19 C1,19.55 1.45,20 2,20 L16,20 C16.55,20 17,19.55 17,19 L17,18 C17,15.34 11.67,14 9,14 Z" id="Shape" fill="#FFFFFF" fill-rule="nonzero"></path>
            <path d="M20,10 L20,8 C20,7.45 19.55,7 19,7 C18.45,7 18,7.45 18,8 L18,10 L16,10 C15.45,10 15,10.45 15,11 C15,11.55 15.45,12 16,12 L18,12 L18,14 C18,14.55 18.45,15 19,15 C19.55,15 20,14.55 20,14 L20,12 L22,12 C22.55,12 23,11.55 23,11 C23,10.45 22.55,10 22,10 L20,10 Z" id="Path" fill="#FFFFFF" fill-rule="nonzero"></path>
        </g>
    </g>
</svg>