<?xml version="1.0" encoding="UTF-8"?>
<svg width="18px" height="18px" viewBox="0 0 18 18" version="1.1" xmlns="http://www.w3.org/2000/svg" xmlns:xlink="http://www.w3.org/1999/xlink">
    <title>icon/ contents type/ video</title>
    <g id="icon/-contents-type/-video" stroke="none" stroke-width="1" fill="none" fill-rule="evenodd">
        <g id="Group">
            <rect id="Rectangle" x="0" y="0" width="18" height="18"></rect>
            <path d="M14.25,2.25 C15.075,2.25 15.75,2.925 15.75,3.75 L15.75,3.75 L15.75,14.25 C15.75,15.075 15.075,15.75 14.25,15.75 L14.25,15.75 L3.75,15.75 C2.925,15.75 2.25,15.075 2.25,14.25 L2.25,14.25 L2.25,3.75 C2.25,2.925 2.925,2.25 3.75,2.25 L3.75,2.25 Z M14.5,3.5 L3.5,3.5 L3.5,14.5 L14.5,14.5 L14.5,3.5 Z M7.06573936,5.43677894 C7.16924222,5.30740036 7.35802993,5.28642395 7.48740851,5.38992681 L7.48740851,5.38992681 L11.511957,8.6095656 C11.5407893,8.63263148 11.566978,8.65882012 11.5900439,8.68765248 C11.7625486,8.90328344 11.727588,9.21792963 11.511957,9.3904344 L11.511957,9.3904344 L7.48740851,12.6100732 C7.4342146,12.6526283 7.36812145,12.6758125 7.3,12.6758125 C7.13431458,12.6758125 7,12.541498 7,12.3758125 L7,12.3758125 L7,5.62418745 C7,5.55606601 7.02318423,5.48997285 7.06573936,5.43677894 Z" id="Combined-Shape" fill="#C4C4C4" fill-rule="nonzero"></path>
        </g>
    </g>
</svg>