<?xml version="1.0" encoding="UTF-8"?>
<svg width="18px" height="18px" viewBox="0 0 18 18" version="1.1" xmlns="http://www.w3.org/2000/svg" xmlns:xlink="http://www.w3.org/1999/xlink">
    <title>icon/ contents type/ gif</title>
    <g id="icon/-contents-type/-gif" stroke="none" stroke-width="1" fill="none" fill-rule="evenodd">
        <rect id="Rectangle" x="0" y="0" width="18" height="18"></rect>
        <path d="M14.25,2.25 C15.075,2.25 15.75,2.925 15.75,3.75 L15.75,3.75 L15.75,14.25 C15.75,15.075 15.075,15.75 14.25,15.75 L14.25,15.75 L3.75,15.75 C2.925,15.75 2.25,15.075 2.25,14.25 L2.25,14.25 L2.25,3.75 C2.25,2.925 2.925,2.25 3.75,2.25 L3.75,2.25 Z M14.5,3.5 L3.5,3.5 L3.5,14.5 L14.5,14.5 L14.5,3.5 Z M9.57142857,7.3 L9.57142857,10.7285714 L8.71428571,10.7285714 L8.71428571,7.3 L9.57142857,7.3 Z M7.28571429,7.3 C7.62857143,7.3 7.85714286,7.58571429 7.85714286,7.87142857 L7.85714286,7.87142857 L7.85714286,8.15714286 L5.85714286,8.15714286 L5.85714286,9.87142857 L7,9.87142857 L7,9.01428571 L7.85714286,9.01428571 L7.85714286,10.1571429 C7.85714286,10.4428571 7.62857143,10.7285714 7.28571429,10.7285714 L7.28571429,10.7285714 L5.57142857,10.7285714 C5.22857143,10.7285714 5,10.4428571 5,10.1571429 L5,10.1571429 L5,7.87142857 C5,7.58571429 5.22857143,7.3 5.57142857,7.3 L5.57142857,7.3 Z M13,7.3 L13,8.15714286 L11.2857143,8.15714286 L11.2857143,8.72857143 L12.4285714,8.72857143 L12.4285714,9.58571429 L11.2857143,9.58571429 L11.2857143,10.7285714 L10.4285714,10.7285714 L10.4285714,7.3 L13,7.3 Z" id="Shape" fill="#C4C4C4" fill-rule="nonzero"></path>
    </g>
</svg>