<?xml version="1.0" encoding="UTF-8"?>
<svg width="18px" height="18px" viewBox="0 0 18 18" version="1.1" xmlns="http://www.w3.org/2000/svg" xmlns:xlink="http://www.w3.org/1999/xlink">
    <title>ic_calender</title>
    <g id="Symbol" stroke="none" stroke-width="1" fill="none" fill-rule="evenodd">
        <g id="ic_calender">
            <polygon id="Path" points="0 0 18 0 18 18 0 18"></polygon>
            <path d="M15,2.25 L14.25,2.25 L14.25,0.75 L12.75,0.75 L12.75,2.25 L5.25,2.25 L5.25,0.75 L3.75,0.75 L3.75,2.25 L3,2.25 C2.175,2.25 1.5,2.925 1.5,3.75 L1.5,15.75 C1.5,16.575 2.175,17.25 3,17.25 L15,17.25 C15.825,17.25 16.5,16.575 16.5,15.75 L16.5,3.75 C16.5,2.925 15.825,2.25 15,2.25 Z M15,15.75 L3,15.75 L3,6 L15,6 L15,15.75 Z" id="Shape" fill="#C4C4C4" fill-rule="nonzero"></path>
        </g>
    </g>
</svg>