<?xml version="1.0" encoding="UTF-8"?>
<svg width="18px" height="18px" viewBox="0 0 18 18" version="1.1" xmlns="http://www.w3.org/2000/svg" xmlns:xlink="http://www.w3.org/1999/xlink">
    <title>icon/ contents type/ image</title>
    <g id="icon/-contents-type/-image" stroke="none" stroke-width="1" fill="none" fill-rule="evenodd">
        <g id="image_white_24dp-2">
            <polygon id="Path" points="0 0 18 0 18 18 0 18"></polygon>
            <path d="M14.5,3.5 L14.5,14.5 L3.5,14.5 L3.5,3.5 L14.5,3.5 M14.25,2.25 L3.75,2.25 C2.925,2.25 2.25,2.925 2.25,3.75 L2.25,14.25 C2.25,15.075 2.925,15.75 3.75,15.75 L14.25,15.75 C15.075,15.75 15.75,15.075 15.75,14.25 L15.75,3.75 C15.75,2.925 15.075,2.25 14.25,2.25 Z M10.5168087,7.51790818 L8,10.7645914 L8,10.7645914 L6.31567413,8.7260849 C6.13978294,8.51320724 5.82462351,8.48322378 5.61174585,8.65911498 C5.58350701,8.68244746 5.55791774,8.70881251 5.5354388,8.73773541 L3.04547091,11.9414941 C3.01613142,11.9792442 3.00128596,12.0262559 3.00362485,12.0740095 L3.13337458,14.7231415 L3.13337458,14.7231415 L14.6731518,14.7231415 L14.6731518,12.0667358 C14.6731518,12.0234192 14.6590886,11.9812734 14.633077,11.9466363 L11.3117924,7.523993 C11.1459695,7.30318225 10.8325411,7.25860575 10.6117303,7.42442862 C10.5760616,7.45121483 10.5441378,7.48265369 10.5168087,7.51790818 Z" id="Shape" fill="#C4C4C4" fill-rule="nonzero"></path>
        </g>
    </g>
</svg>