<?xml version="1.0" encoding="UTF-8"?>
<svg width="18px" height="18px" viewBox="0 0 18 18" version="1.1" xmlns="http://www.w3.org/2000/svg" xmlns:xlink="http://www.w3.org/1999/xlink">
    <title>ic_delete_box</title>
    <g id="Symbol" stroke="none" stroke-width="1" fill="none" fill-rule="evenodd">
        <g id="ic_delete_box">
            <polygon id="Path" points="0 0 18 0 18 18 0 18"></polygon>
            <path d="M14,2 C15.1045695,2 16,2.8954305 16,4 L16,14 C16,15.1045695 15.1045695,16 14,16 L4,16 C2.8954305,16 2,15.1045695 2,14 L2,4 C2,2.8954305 2.8954305,2 4,2 L14,2 Z M11.7425,5.3 L9.05,7.9925 L6.3575,5.3 L5.3,6.3575 L7.9925,9.05 L5.3,11.7425 L6.3575,12.8 L9.05,10.1075 L11.7425,12.8 L12.8,11.7425 L10.1075,9.05 L12.8,6.3575 L11.7425,5.3 Z" id="Path-2" fill="#C4C4C4" fill-rule="nonzero"></path>
        </g>
    </g>
</svg>