<?xml version="1.0" encoding="UTF-8"?>
<svg width="24px" height="24px" viewBox="0 0 24 24" version="1.1" xmlns="http://www.w3.org/2000/svg" xmlns:xlink="http://www.w3.org/1999/xlink">
    <title>ic_google</title>
    <g id="Symbol" stroke="none" stroke-width="1" fill="none" fill-rule="evenodd">
        <g id="ic_google">
            <polygon id="Path" points="0 0 24 0 24 24 0 24"></polygon>
            <path d="M12.1612245,20.122449 C7.71142857,20.122449 4.1,16.5110204 4.1,12.0612245 C4.1,7.61142857 7.71142857,4 12.1612245,4 C14.3377551,4 16.1595918,4.80612245 17.5622449,6.09591837 L15.4340816,8.14346939 C14.8214286,7.56306122 13.7573469,6.88591837 12.1612245,6.88591837 C9.35591837,6.88591837 7.08265306,9.20755102 7.08265306,12.0612245 C7.08265306,14.914898 9.35591837,17.2365306 12.1612245,17.2365306 C15.4018367,17.2365306 16.74,14.914898 16.8689796,13.3510204 L12.1612245,13.3510204 L12.1612245,10.5940816 L19.7065306,10.5940816 C19.8193878,11.0938776 19.9,11.577551 19.9,12.2385714 C19.9,16.8495918 16.8206122,20.122449 12.1612245,20.122449 Z" id="Path" fill="#000000" fill-rule="nonzero"></path>
        </g>
    </g>
</svg>