<?xml version="1.0" encoding="UTF-8"?>
<svg width="18px" height="18px" viewBox="0 0 18 18" version="1.1" xmlns="http://www.w3.org/2000/svg" xmlns:xlink="http://www.w3.org/1999/xlink">
    <title>ic_list_previous</title>
    <g id="Symbol" stroke="none" stroke-width="1" fill="none" fill-rule="evenodd">
        <g id="ic_list_previous" transform="translate(9.000000, 9.000000) scale(-1, 1) translate(-9.000000, -9.000000) ">
            <rect id="Rectangle" transform="translate(9.000000, 9.000000) rotate(-180.000000) translate(-9.000000, -9.000000) " x="0.473684211" y="0.473684211" width="17.0526316" height="17.0526316"></rect>
            <path d="M11.9013158,11.8018421 L11.9013158,6.19815789 L14.7031579,9 L11.9013158,11.8018421 M15.8719737,9.58855263 C16.1952632,9.26526316 16.1952632,8.74302632 15.8719737,8.41973684 L12.0671053,4.61486842 C11.5531579,4.09263158 10.6578947,4.45736842 10.6578947,5.19513158 L10.6578947,12.7965789 C10.6578947,13.5343421 11.5531579,13.9073684 12.0753947,13.3851316 L15.8719737,9.58855263 Z M7.34210526,12.8048684 L7.34210526,5.19513158 C7.34210526,4.45736842 6.44684211,4.08434211 5.92460526,4.60657895 L2.11973684,8.41144737 C1.79644737,8.73473684 1.79644737,9.25697368 2.11973684,9.58026316 L5.92460526,13.3851316 C6.44684211,13.9073684 7.34210526,13.5426316 7.34210526,12.8048684 Z" id="Shape" fill="#FFFFFF" fill-rule="nonzero"></path>
        </g>
    </g>
</svg>