<?xml version="1.0" encoding="UTF-8"?>
<svg width="18px" height="18px" viewBox="0 0 18 18" version="1.1" xmlns="http://www.w3.org/2000/svg" xmlns:xlink="http://www.w3.org/1999/xlink">
    <title>ic_refresh</title>
    <g id="Symbol" stroke="none" stroke-width="1" fill="none" fill-rule="evenodd">
        <g id="ic_refresh">
            <rect id="Rectangle" x="0" y="0" width="18" height="18"></rect>
            <polygon id="Path" fill="#C4C4C4" fill-rule="nonzero" points="14.3535732 2.5 14.3535732 6.63766335 10 6.63766335 10 5.63766335 13.353 5.637 13.3535732 2.5"></polygon>
            <path d="M9,3 C11.1162968,3 12.9766874,4.09566476 14.0448608,5.75068327 L13.2039162,6.29202765 C12.31375,4.91296199 10.7634918,4 9,4 C6.23857625,4 4,6.23857625 4,9 C4,11.7614237 6.23857625,14 9,14 C11.7614237,14 14,11.7614237 14,9 L14,8.999 L14.9999999,8.99899587 C15,8.99933057 15,8.99966528 15,9 C15,12.3137085 12.3137085,15 9,15 C5.6862915,15 3,12.3137085 3,9 C3,5.6862915 5.6862915,3 9,3 Z" id="Combined-Shape" fill="#C4C4C4" fill-rule="nonzero"></path>
        </g>
    </g>
</svg>