<?xml version="1.0" encoding="UTF-8"?>
<svg width="24px" height="24px" viewBox="0 0 24 24" version="1.1" xmlns="http://www.w3.org/2000/svg" xmlns:xlink="http://www.w3.org/1999/xlink">
    <title>ic_search</title>
    <g id="Symbol" stroke="none" stroke-width="1" fill="none" fill-rule="evenodd">
        <g id="icon/-search" transform="translate(-18.000000, -18.000000)" fill="#C4C4C4" fill-rule="nonzero">
            <g id="ic_search" transform="translate(18.000000, 18.000000)">
                <path d="M16.5833333,14.8333333 L15.6616667,14.8333333 L15.335,14.5183333 C16.4783333,13.1883333 17.1666667,11.4616667 17.1666667,9.58333333 C17.1666667,5.395 13.7716667,2 9.58333333,2 C5.395,2 2,5.395 2,9.58333333 C2,13.7716667 5.395,17.1666667 9.58333333,17.1666667 C11.4616667,17.1666667 13.1883333,16.4783333 14.5183333,15.335 L14.8333333,15.6616667 L14.8333333,16.5833333 L20.6666667,22.405 L22.405,20.6666667 L16.5833333,14.8333333 Z M9.58333333,14.8333333 C6.67833333,14.8333333 4.33333333,12.4883333 4.33333333,9.58333333 C4.33333333,6.67833333 6.67833333,4.33333333 9.58333333,4.33333333 C12.4883333,4.33333333 14.8333333,6.67833333 14.8333333,9.58333333 C14.8333333,12.4883333 12.4883333,14.8333333 9.58333333,14.8333333 Z" id="Shape"></path>
            </g>
        </g>
    </g>
</svg>