<?xml version="1.0" encoding="UTF-8"?>
<svg width="18px" height="18px" viewBox="0 0 18 18" version="1.1" xmlns="http://www.w3.org/2000/svg" xmlns:xlink="http://www.w3.org/1999/xlink">
    <title>ic_view_type_horizon_small_disabled</title>
    <g id="Symbol" stroke="none" stroke-width="1" fill="none" fill-rule="evenodd">
        <g id="ic_view_type_horizon_small_disabled">
            <polygon id="Path" points="0 0 18 0 18 18 0 18"></polygon>
            <polygon id="Path" fill="#4A4A4A" fill-rule="nonzero" transform="translate(16.125000, 9.000000) scale(-1, 1) translate(-16.125000, -9.000000) " points="15.375 3.75 16.875 3.75 16.875 14.25 15.375 14.25"></polygon>
            <path d="M12.9464286,3.75 C13.4571429,3.75 13.875,4.0875 13.875,4.5 L13.875,4.5 L13.875,13.5 C13.875,13.9125 13.4571429,14.25 12.9464286,14.25 L12.9464286,14.25 L1.80357143,14.25 C1.29285714,14.25 0.875,13.9125 0.875,13.5 L0.875,13.5 L0.875,4.5 C0.875,4.0875 1.29285714,3.75 1.80357143,3.75 L1.80357143,3.75 Z M7.68028846,5.5 C6.22596154,5.5 5.33653846,6.32932692 5.33653846,7.43509615 C5.33653846,8.55288462 6.34615385,9.02163462 7.22355769,9.35817308 L7.51147792,9.46893519 C8.13018162,9.71111111 8.68990385,9.97916667 8.68990385,10.5 C8.68990385,11.0048077 8.31730769,11.3894231 7.52403846,11.3894231 C6.81490385,11.3894231 6.23798077,11.1009615 5.64903846,10.6322115 L5,11.5216346 C5.63701923,12.0504808 6.57451923,12.4350962 7.48798077,12.4350962 C9.12259615,12.4350962 10,11.5336538 10,10.4278846 C10,9.17788462 8.97836538,8.76923077 8.05288462,8.42067308 C7.33173077,8.15625 6.64663462,7.93990385 6.64663462,7.375 C6.64663462,6.91826923 6.98317308,6.55769231 7.70432692,6.55769231 C8.25721154,6.55769231 8.72596154,6.79807692 9.18269231,7.13461538 L9.83173077,6.28125 C9.29086538,5.86057692 8.56971154,5.5 7.68028846,5.5 Z" id="Combined-Shape" fill="#4A4A4A" fill-rule="nonzero"></path>
        </g>
    </g>
</svg>