<?xml version="1.0" encoding="UTF-8"?>
<svg width="18px" height="18px" viewBox="0 0 18 18" version="1.1" xmlns="http://www.w3.org/2000/svg" xmlns:xlink="http://www.w3.org/1999/xlink">
    <title>ic_view_type_horizon_medium_disabled</title>
    <g id="Symbol" stroke="none" stroke-width="1" fill="none" fill-rule="evenodd">
        <g id="ic_view_type_horizon_medium_disabled">
            <polygon id="Path" points="0 0 18 0 18 18 0 18"></polygon>
            <polygon id="Path" fill="#4A4A4A" fill-rule="nonzero" transform="translate(16.125000, 9.000000) scale(-1, 1) translate(-16.125000, -9.000000) " points="15.375 3.75 16.875 3.75 16.875 14.25 15.375 14.25"></polygon>
            <path d="M12.9464286,3.75 C13.4571429,3.75 13.875,4.0875 13.875,4.5 L13.875,4.5 L13.875,13.5 C13.875,13.9125 13.4571429,14.25 12.9464286,14.25 L12.9464286,14.25 L1.80357143,14.25 C1.29285714,14.25 0.875,13.9125 0.875,13.5 L0.875,13.5 L0.875,4.5 C0.875,4.0875 1.29285714,3.75 1.80357143,3.75 L1.80357143,3.75 Z M6.21918356,5.75 L4.75,5.75 L4.75,12.0270801 L6.06632653,12.0270801 L6.065,8.842 L7.03118244,11.4697802 L7.94573707,11.4697802 L8.903,8.843 L8.9022763,12.0270801 L10.25,12.0270801 L10.25,5.75 L8.77207856,5.75 L7.63488261,8.93496014 L7.505,9.337 L7.33979983,8.83799403 L6.21918356,5.75 Z" id="Combined-Shape" fill="#4A4A4A" fill-rule="nonzero"></path>
        </g>
    </g>
</svg>